<svg width="363" height="363" viewBox="0 0 363 363" fill="none" xmlns="http://www.w3.org/2000/svg">
<path d="M0 12C0 5.37259 5.37258 0 12 0H351C357.627 0 363 5.37258 363 12V363H0V12Z" fill="#EBEBEB"/>
<path d="M174.823 180V168.618L172.14 170.735L171.239 168.513L175.2 165.537H177.443V180H174.823ZM182.005 180.231C181.474 180.231 181.027 180.056 180.664 179.707C180.301 179.357 180.119 178.924 180.119 178.407C180.119 177.89 180.301 177.457 180.664 177.107C181.027 176.744 181.474 176.562 182.005 176.562C182.522 176.562 182.963 176.744 183.326 177.107C183.689 177.457 183.871 177.89 183.871 178.407C183.871 178.924 183.689 179.357 183.326 179.707C182.963 180.056 182.522 180.231 182.005 180.231ZM182.005 172.601C181.474 172.601 181.027 172.426 180.664 172.077C180.301 171.727 180.119 171.294 180.119 170.777C180.119 170.26 180.301 169.827 180.664 169.477C181.027 169.114 181.474 168.932 182.005 168.932C182.522 168.932 182.963 169.114 183.326 169.477C183.689 169.827 183.871 170.26 183.871 170.777C183.871 171.294 183.689 171.727 183.326 172.077C182.963 172.426 182.522 172.601 182.005 172.601ZM188.681 180V168.618L185.998 170.735L185.097 168.513L189.059 165.537H191.302V180H188.681ZM146.704 201.272C144.566 201.272 142.854 200.483 141.568 198.904L142.721 196.766C143.755 198.191 145.02 198.904 146.515 198.904C147.27 198.904 147.878 198.708 148.339 198.317C148.814 197.926 149.052 197.416 149.052 196.787C149.052 196.144 148.8 195.634 148.297 195.257C147.794 194.865 147.109 194.67 146.243 194.67H144.566V192.343H146.39C147.102 192.343 147.682 192.168 148.129 191.819C148.577 191.469 148.8 191.001 148.8 190.414C148.8 189.869 148.591 189.436 148.171 189.115C147.766 188.779 147.214 188.612 146.515 188.612C145.216 188.612 144.098 189.227 143.161 190.456L142.113 188.318C142.658 187.648 143.315 187.137 144.084 186.788C144.866 186.425 145.733 186.243 146.683 186.243C147.619 186.243 148.444 186.404 149.156 186.725C149.869 187.047 150.421 187.494 150.812 188.067C151.218 188.626 151.42 189.276 151.42 190.016C151.42 190.799 151.197 191.483 150.75 192.07C150.302 192.657 149.687 193.104 148.905 193.412C150.805 193.971 151.756 195.159 151.756 196.975C151.756 197.842 151.539 198.596 151.106 199.239C150.687 199.882 150.1 200.385 149.345 200.748C148.591 201.098 147.71 201.272 146.704 201.272ZM158.989 201.272C157.27 201.272 155.935 200.651 154.985 199.407C154.035 198.149 153.56 196.388 153.56 194.125C153.56 192.532 153.804 191.148 154.293 189.974C154.782 188.786 155.474 187.871 156.369 187.228C157.263 186.571 158.318 186.243 159.534 186.243C161.183 186.243 162.608 186.83 163.81 188.004L162.762 190.1C162.259 189.555 161.77 189.164 161.295 188.926C160.819 188.675 160.295 188.549 159.722 188.549C158.604 188.549 157.738 188.989 157.123 189.869C156.508 190.736 156.173 191.994 156.117 193.643C156.41 192.972 156.858 192.455 157.459 192.091C158.059 191.728 158.779 191.546 159.618 191.546C160.498 191.546 161.274 191.749 161.944 192.154C162.615 192.559 163.139 193.118 163.516 193.831C163.908 194.544 164.103 195.361 164.103 196.284C164.103 197.276 163.887 198.149 163.454 198.904C163.02 199.644 162.419 200.224 161.651 200.644C160.882 201.063 159.995 201.272 158.989 201.272ZM158.989 199.093C159.729 199.093 160.337 198.841 160.812 198.338C161.288 197.835 161.525 197.178 161.525 196.368C161.525 195.571 161.288 194.928 160.812 194.439C160.351 193.936 159.75 193.684 159.01 193.684C158.255 193.684 157.647 193.936 157.186 194.439C156.725 194.942 156.494 195.599 156.494 196.409C156.494 197.206 156.725 197.856 157.186 198.359C157.661 198.848 158.262 199.093 158.989 199.093ZM170.368 201.272C168.229 201.272 166.518 200.483 165.232 198.904L166.385 196.766C167.419 198.191 168.684 198.904 170.179 198.904C170.934 198.904 171.541 198.708 172.003 198.317C172.478 197.926 172.715 197.416 172.715 196.787C172.715 196.144 172.464 195.634 171.961 195.257C171.458 194.865 170.773 194.67 169.906 194.67H168.229V192.343H170.053C170.766 192.343 171.346 192.168 171.793 191.819C172.24 191.469 172.464 191.001 172.464 190.414C172.464 189.869 172.254 189.436 171.835 189.115C171.43 188.779 170.878 188.612 170.179 188.612C168.879 188.612 167.761 189.227 166.825 190.456L165.777 188.318C166.322 187.648 166.979 187.137 167.747 186.788C168.53 186.425 169.396 186.243 170.347 186.243C171.283 186.243 172.107 186.404 172.82 186.725C173.533 187.047 174.085 187.494 174.476 188.067C174.881 188.626 175.084 189.276 175.084 190.016C175.084 190.799 174.86 191.483 174.413 192.07C173.966 192.657 173.351 193.104 172.569 193.412C174.469 193.971 175.419 195.159 175.419 196.975C175.419 197.842 175.203 198.596 174.769 199.239C174.35 199.882 173.763 200.385 173.009 200.748C172.254 201.098 171.374 201.272 170.368 201.272ZM176.49 201L180.347 195.424L176.699 190.226H179.844L182.128 193.684L184.413 190.226H187.306L183.659 195.424L187.536 201H184.392L181.856 197.185L179.361 201H176.49ZM193.233 201.272C191.095 201.272 189.383 200.483 188.097 198.904L189.25 196.766C190.284 198.191 191.549 198.904 193.044 198.904C193.799 198.904 194.407 198.708 194.868 198.317C195.343 197.926 195.581 197.416 195.581 196.787C195.581 196.144 195.329 195.634 194.826 195.257C194.323 194.865 193.638 194.67 192.772 194.67H191.095V192.343H192.918C193.631 192.343 194.211 192.168 194.658 191.819C195.105 191.469 195.329 191.001 195.329 190.414C195.329 189.869 195.119 189.436 194.7 189.115C194.295 188.779 193.743 188.612 193.044 188.612C191.745 188.612 190.627 189.227 189.69 190.456L188.642 188.318C189.187 187.648 189.844 187.137 190.613 186.788C191.395 186.425 192.262 186.243 193.212 186.243C194.148 186.243 194.973 186.404 195.685 186.725C196.398 187.047 196.95 187.494 197.341 188.067C197.747 188.626 197.949 189.276 197.949 190.016C197.949 190.799 197.726 191.483 197.278 192.07C196.831 192.657 196.216 193.104 195.434 193.412C197.334 193.971 198.285 195.159 198.285 196.975C198.285 197.842 198.068 198.596 197.635 199.239C197.216 199.882 196.629 200.385 195.874 200.748C195.119 201.098 194.239 201.272 193.233 201.272ZM205.518 201.272C203.799 201.272 202.464 200.651 201.514 199.407C200.564 198.149 200.089 196.388 200.089 194.125C200.089 192.532 200.333 191.148 200.822 189.974C201.311 188.786 202.003 187.871 202.897 187.228C203.792 186.571 204.847 186.243 206.063 186.243C207.712 186.243 209.137 186.83 210.339 188.004L209.291 190.1C208.788 189.555 208.299 189.164 207.823 188.926C207.348 188.675 206.824 188.549 206.251 188.549C205.133 188.549 204.267 188.989 203.652 189.869C203.037 190.736 202.702 191.994 202.646 193.643C202.939 192.972 203.387 192.455 203.987 192.091C204.588 191.728 205.308 191.546 206.146 191.546C207.027 191.546 207.802 191.749 208.473 192.154C209.144 192.559 209.668 193.118 210.045 193.831C210.437 194.544 210.632 195.361 210.632 196.284C210.632 197.276 210.416 198.149 209.982 198.904C209.549 199.644 208.948 200.224 208.18 200.644C207.411 201.063 206.524 201.272 205.518 201.272ZM205.518 199.093C206.258 199.093 206.866 198.841 207.341 198.338C207.816 197.835 208.054 197.178 208.054 196.368C208.054 195.571 207.816 194.928 207.341 194.439C206.88 193.936 206.279 193.684 205.539 193.684C204.784 193.684 204.176 193.936 203.715 194.439C203.254 194.942 203.023 195.599 203.023 196.409C203.023 197.206 203.254 197.856 203.715 198.359C204.19 198.848 204.791 199.093 205.518 199.093ZM216.896 201.272C214.758 201.272 213.047 200.483 211.761 198.904L212.914 196.766C213.948 198.191 215.213 198.904 216.708 198.904C217.462 198.904 218.07 198.708 218.531 198.317C219.007 197.926 219.244 197.416 219.244 196.787C219.244 196.144 218.993 195.634 218.49 195.257C217.986 194.865 217.302 194.67 216.435 194.67H214.758V192.343H216.582C217.295 192.343 217.875 192.168 218.322 191.819C218.769 191.469 218.993 191.001 218.993 190.414C218.993 189.869 218.783 189.436 218.364 189.115C217.959 188.779 217.407 188.612 216.708 188.612C215.408 188.612 214.29 189.227 213.354 190.456L212.306 188.318C212.851 187.648 213.508 187.137 214.276 186.788C215.059 186.425 215.925 186.243 216.875 186.243C217.812 186.243 218.636 186.404 219.349 186.725C220.062 187.047 220.614 187.494 221.005 188.067C221.41 188.626 221.613 189.276 221.613 190.016C221.613 190.799 221.389 191.483 220.942 192.07C220.495 192.657 219.88 193.104 219.097 193.412C220.998 193.971 221.948 195.159 221.948 196.975C221.948 197.842 221.732 198.596 221.298 199.239C220.879 199.882 220.292 200.385 219.538 200.748C218.783 201.098 217.903 201.272 216.896 201.272Z" fill="#717171"/>
</svg>
